<mxfile host="app.diagrams.net" agent="Mozilla/5.0 (Macintosh; Intel Mac OS X 10_15_7) AppleWebKit/605.1.15 (KHTML, like Gecko) Version/18.6 Safari/605.1.15" version="28.2.5">
  <diagram name="Page-1" id="9LHd4YJCfMJcmH1EGs_j">
    <mxGraphModel dx="976" dy="874" grid="1" gridSize="10" guides="1" tooltips="1" connect="1" arrows="1" fold="1" page="1" pageScale="1" pageWidth="850" pageHeight="1100" math="0" shadow="0">
      <root>
        <mxCell id="0" />
        <mxCell id="1" parent="0" />
        <mxCell id="UE_uhXEpv-yHipMTq9RW-17" style="edgeStyle=orthogonalEdgeStyle;rounded=0;orthogonalLoop=1;jettySize=auto;html=1;" edge="1" parent="1" source="UE_uhXEpv-yHipMTq9RW-1" target="UE_uhXEpv-yHipMTq9RW-5">
          <mxGeometry relative="1" as="geometry" />
        </mxCell>
        <mxCell id="UE_uhXEpv-yHipMTq9RW-1" value="Data Source 1" style="rounded=1;whiteSpace=wrap;html=1;fillColor=#6d8764;strokeColor=#3A5431;fontColor=#ffffff;" vertex="1" parent="1">
          <mxGeometry x="110" y="200" width="120" height="60" as="geometry" />
        </mxCell>
        <mxCell id="UE_uhXEpv-yHipMTq9RW-18" style="edgeStyle=orthogonalEdgeStyle;rounded=0;orthogonalLoop=1;jettySize=auto;html=1;entryX=0.5;entryY=0;entryDx=0;entryDy=0;" edge="1" parent="1" source="UE_uhXEpv-yHipMTq9RW-2" target="UE_uhXEpv-yHipMTq9RW-14">
          <mxGeometry relative="1" as="geometry" />
        </mxCell>
        <mxCell id="UE_uhXEpv-yHipMTq9RW-2" value="Data Source 2" style="rounded=1;whiteSpace=wrap;html=1;fillColor=#6d8764;strokeColor=#3A5431;fontColor=#ffffff;" vertex="1" parent="1">
          <mxGeometry x="280" y="200" width="120" height="60" as="geometry" />
        </mxCell>
        <mxCell id="UE_uhXEpv-yHipMTq9RW-19" style="edgeStyle=orthogonalEdgeStyle;rounded=0;orthogonalLoop=1;jettySize=auto;html=1;entryX=0.5;entryY=0;entryDx=0;entryDy=0;" edge="1" parent="1" source="UE_uhXEpv-yHipMTq9RW-3" target="UE_uhXEpv-yHipMTq9RW-7">
          <mxGeometry relative="1" as="geometry" />
        </mxCell>
        <mxCell id="UE_uhXEpv-yHipMTq9RW-3" value="Data Source 3" style="rounded=1;whiteSpace=wrap;html=1;fillColor=#6d8764;strokeColor=#3A5431;fontColor=#ffffff;" vertex="1" parent="1">
          <mxGeometry x="450" y="200" width="120" height="60" as="geometry" />
        </mxCell>
        <mxCell id="UE_uhXEpv-yHipMTq9RW-20" style="edgeStyle=orthogonalEdgeStyle;rounded=0;orthogonalLoop=1;jettySize=auto;html=1;entryX=0.5;entryY=0;entryDx=0;entryDy=0;" edge="1" parent="1" source="UE_uhXEpv-yHipMTq9RW-5" target="UE_uhXEpv-yHipMTq9RW-15">
          <mxGeometry relative="1" as="geometry" />
        </mxCell>
        <mxCell id="UE_uhXEpv-yHipMTq9RW-5" value="ETL/ELT" style="rounded=1;whiteSpace=wrap;html=1;fillColor=#76608a;fontColor=#ffffff;strokeColor=#432D57;" vertex="1" parent="1">
          <mxGeometry x="110" y="290" width="120" height="60" as="geometry" />
        </mxCell>
        <mxCell id="UE_uhXEpv-yHipMTq9RW-22" style="edgeStyle=orthogonalEdgeStyle;rounded=0;orthogonalLoop=1;jettySize=auto;html=1;" edge="1" parent="1" source="UE_uhXEpv-yHipMTq9RW-7" target="UE_uhXEpv-yHipMTq9RW-15">
          <mxGeometry relative="1" as="geometry" />
        </mxCell>
        <mxCell id="UE_uhXEpv-yHipMTq9RW-7" value="ETL/ELT" style="rounded=1;whiteSpace=wrap;html=1;fillColor=#76608a;fontColor=#ffffff;strokeColor=#432D57;" vertex="1" parent="1">
          <mxGeometry x="450" y="290" width="120" height="60" as="geometry" />
        </mxCell>
        <mxCell id="UE_uhXEpv-yHipMTq9RW-21" style="edgeStyle=orthogonalEdgeStyle;rounded=0;orthogonalLoop=1;jettySize=auto;html=1;" edge="1" parent="1" source="UE_uhXEpv-yHipMTq9RW-14" target="UE_uhXEpv-yHipMTq9RW-15">
          <mxGeometry relative="1" as="geometry" />
        </mxCell>
        <mxCell id="UE_uhXEpv-yHipMTq9RW-14" value="ETL/ELT" style="rounded=1;whiteSpace=wrap;html=1;fillColor=#76608a;fontColor=#ffffff;strokeColor=#432D57;" vertex="1" parent="1">
          <mxGeometry x="280" y="290" width="120" height="60" as="geometry" />
        </mxCell>
        <mxCell id="UE_uhXEpv-yHipMTq9RW-23" style="edgeStyle=orthogonalEdgeStyle;rounded=0;orthogonalLoop=1;jettySize=auto;html=1;" edge="1" parent="1" source="UE_uhXEpv-yHipMTq9RW-15" target="UE_uhXEpv-yHipMTq9RW-16">
          <mxGeometry relative="1" as="geometry" />
        </mxCell>
        <mxCell id="UE_uhXEpv-yHipMTq9RW-15" value="Data warehouse" style="rounded=1;whiteSpace=wrap;html=1;fillColor=#1ba1e2;fontColor=#ffffff;strokeColor=#006EAF;" vertex="1" parent="1">
          <mxGeometry x="105" y="400" width="470" height="60" as="geometry" />
        </mxCell>
        <mxCell id="UE_uhXEpv-yHipMTq9RW-16" value="Data analysis and reporting" style="rounded=1;whiteSpace=wrap;html=1;fillColor=#FF9933;fontColor=#FFFFFF;strokeColor=#C73500;" vertex="1" parent="1">
          <mxGeometry x="220" y="490" width="240" height="60" as="geometry" />
        </mxCell>
      </root>
    </mxGraphModel>
  </diagram>
</mxfile>
